<svg data-noselect="" viewBox="0 60 280 160" width="120" height="64" preserveAspectRatio="none" version="1.1" xmlns="http://www.w3.org/2000/svg" style="background: rgba(255, 255, 255, 0);"><defs></defs> <g id="shapge_gu0H1lXMNt" transform="translate(36.95150115473441,97.2201610236144) rotate(0,132.375,42.850631768953065) scale(1.2317167051578137,1.2317167051578137)" filter="" style="cursor: move; opacity: 1;"><g><svg xmlns="http://www.w3.org/2000/svg" version="1.1" xmlns:xlink="http://www.w3.org/1999/xlink" overflow="hidden" style="top:0; left: 0" width="264.75" height="85.70126353790613" viewBox="0 0 207.75 67.25" preserveAspectRatio="none" data-parent="shapge_gu0H1lXMNt"><rect fill="rgba(0,0,0,0)" width="207.75" height="67.25"></rect> <rect opacity="0"></rect><g transform="translate(0 0)" data-width="152.75"><path fill="#e60012" d="M1.35 0.35L1.75-3.30L1.75-3.30Q3.85-3.75 4.53-4.55L4.53-4.55L4.53-4.55Q5.20-5.35 5.20-7.45L5.20-7.45L5.25-25.90L5.25-25.90Q5.25-27.45 4.88-27.98L4.88-27.98L4.88-27.98Q4.50-28.50 3.45-28.50L3.45-28.50L3.45-28.50Q2.70-28.50 1.90-28.40L1.90-28.40L1.55-28.95L1.95-32.25L9.35-32.20L9.35-32.20Q10.75-32.20 13.80-32.35L13.80-32.35L17.10-32.50L16.80-28.70L16.80-28.70Q14.95-28.45 14.38-27.95L14.38-27.95L14.38-27.95Q13.80-27.45 13.70-26L13.70-26L13.70-26Q13.15-15.35 13.15-7.15L13.15-7.15L13.15-7.15Q13.15-5.05 13.50-4.38L13.50-4.38L13.50-4.38Q13.85-3.70 14.95-3.70L14.95-3.70L14.95-3.70Q16.10-3.70 16.85-3.85L16.85-3.85L17.15-3.45L16.70 0.20L16.70 0.20Q11.80 0 8.90 0L8.90 0L8.90 0Q6.50 0 1.35 0.35L1.35 0.35Z" transform="translate(0 41.375)"></path><path fill="#e60012" d="M5.05 0.35L5.45-3.50L5.45-3.50Q7.65-3.70 8.65-4.10L8.65-4.10L8.65-4.10Q9.65-4.50 10.03-5.43L10.03-5.43L10.03-5.43Q10.40-6.35 10.40-8.30L10.40-8.30L10.40-27.40L10.40-27.40Q8.20-27.35 7.25-26.90L7.25-26.90L7.25-26.90Q6.30-26.45 5.88-25.18L5.88-25.18L5.88-25.18Q5.45-23.90 5.15-20.75L5.15-20.75L0.15-20.40L0.15-20.40Q0.55-26.25 0.65-32.15L0.65-32.15L1.25-32.75L6.65-32.20L22.25-32.20L27.80-32.75L28.35-32.15L28.35-32.15Q28.55-24.40 28.75-20.75L28.75-20.75L23.75-20.40L23.75-20.40Q23.40-23.85 23.03-25.18L23.03-25.18L23.03-25.18Q22.65-26.50 21.78-26.93L21.78-26.93L21.78-26.93Q20.90-27.35 18.75-27.40L18.75-27.40L18.75-27.40Q18.35-17.40 18.35-7.25L18.35-7.25L18.35-7.25Q18.35-5.40 18.98-4.63L18.98-4.63L18.98-4.63Q19.60-3.85 21.05-3.85L21.05-3.85L21.05-3.85Q22.10-3.85 23.65-4L23.65-4L23.85-3.70L23.40 0.25L23.40 0.25Q16.05 0 14.10 0L14.10 0L14.10 0Q10.65 0 5.05 0.35L5.05 0.35Z" transform="translate(21.35 41.375)"></path><path fill="#000000" d="M1.40 0.35L1.75-3.30L1.75-3.30Q3.85-3.70 4.53-4.53L4.53-4.53L4.53-4.53Q5.20-5.35 5.20-7.45L5.20-7.45L5.25-25.90L5.25-25.90Q5.25-27.45 4.90-27.98L4.90-27.98L4.90-27.98Q4.55-28.50 3.45-28.50L3.45-28.50L3.45-28.50Q2.75-28.50 2.05-28.40L2.05-28.40L1.70-28.95L2.10-32.25L8.25-32.20L8.25-32.20Q8.80-32.20 13.90-32.40L13.90-32.40L13.90-32.40Q14.80-32.40 16.80-32.50L16.80-32.50L16.50-28.70L16.50-28.70Q15.25-28.50 14.70-28.20L14.70-28.20L14.70-28.20Q14.15-27.90 13.93-27.33L13.93-27.33L13.93-27.33Q13.70-26.75 13.65-25.50L13.65-25.50L13.35-18.85L18.85-18.70L18.85-18.70Q21.30-18.70 24.05-19L24.05-19L24.05-25.90L24.05-25.90Q24.05-27.45 23.70-27.98L23.70-27.98L23.70-27.98Q23.35-28.50 22.25-28.50L22.25-28.50L22.25-28.50Q21.60-28.50 20.80-28.40L20.80-28.40L20.45-28.95L20.85-32.25L27.95-32.20L27.95-32.20Q29.15-32.20 32.15-32.35L32.15-32.35L35.90-32.50L35.60-28.75L35.60-28.75Q33.80-28.50 33.23-27.98L33.23-27.98L33.23-27.98Q32.65-27.45 32.55-26L32.55-26L32.55-26Q32.30-22.30 32.13-17.03L32.13-17.03L32.13-17.03Q31.95-11.75 31.95-7.60L31.95-7.60L31.95-7.60Q31.95-5.40 32.38-4.58L32.38-4.58L32.38-4.58Q32.80-3.75 34-3.75L34-3.75L34-3.75Q34.60-3.75 35.65-3.90L35.65-3.90L35.95-3.45L35.50 0.10L35.50 0.10Q31.50 0 27.70 0L27.70 0L20.15 0.05L20.60-3.65L20.60-3.65Q22.55-3.70 23.30-4.60L23.30-4.60L23.30-4.60Q24.05-5.50 24.05-7.90L24.05-7.90L24.05-13.75L19.65-13.80L19.65-13.80Q17.95-13.80 13.20-13.35L13.20-13.35L13.15-7.15L13.15-7.15Q13.15-5.05 13.50-4.38L13.50-4.38L13.50-4.38Q13.85-3.70 14.95-3.70L14.95-3.70L14.95-3.70Q15.95-3.70 16.55-3.85L16.55-3.85L16.85-3.45L16.40 0.20L16.40 0.20Q12.80 0 9.50 0L9.50 0L9.50 0Q7.10 0 1.40 0.35L1.40 0.35Z" transform="translate(53.300000000000004 41.375)"></path><path fill="#000000" d="M3.30-16.60L3.30-16.60Q3.30-17.85 2.95-18.35L2.95-18.35L2.95-18.35Q2.60-18.85 1.75-18.85L1.75-18.85L1.75-18.85Q1.30-18.85 0.93-18.80L0.93-18.80L0.93-18.80Q0.55-18.75 0.45-18.75L0.45-18.75L0.80-22.20L0.80-22.20Q3.75-22.60 6.85-23.15L6.85-23.15L6.85-23.15Q9.95-23.70 10.85-23.90L10.85-23.90L11.40-22.95L11.40-22.95Q10.85-21.75 10.45-17.73L10.45-17.73L10.45-17.73Q10.05-13.70 10.05-9.20L10.05-9.20L10.05-9.20Q10.05-5.55 12.75-5.55L12.75-5.55L12.75-5.55Q13.50-5.55 14.30-5.90L14.30-5.90L14.30-5.90Q15.10-6.25 16.20-6.95L16.20-6.95L16.20-16.50L16.20-16.50Q16.20-17.90 15.83-18.32L15.83-18.32L15.83-18.32Q15.45-18.75 14.20-18.80L14.20-18.80L13.50-18.80L14-22.20L14-22.20Q16.95-22.55 20.08-23.08L20.08-23.08L20.08-23.08Q23.20-23.60 24.10-23.75L24.10-23.75L24.70-22.80L24.70-22.80Q24.05-21.65 23.63-17.18L23.63-17.18L23.63-17.18Q23.20-12.70 23.20-7.25L23.20-7.25L23.20-7.25Q23.20-6.40 23.65-5.88L23.65-5.88L23.65-5.88Q24.10-5.35 24.85-5.35L24.85-5.35L24.85-5.35Q25.50-5.35 26.20-5.65L26.20-5.65L26.20-5.65Q26.90-5.95 26.90-6L26.90-6L27.70-4.85L27.70-4.85Q27.50-4.50 26.65-3.35L26.65-3.35L26.65-3.35Q25.80-2.20 24.55-1L24.55-1L24.55-1Q23.30 0.20 22.10 0.60L22.10 0.60L22.10 0.60Q17.30 0.60 16.70-3.15L16.70-3.15L16.25-3.40L16.25-3.40Q14.50-1.60 13.15-0.53L13.15-0.53L13.15-0.53Q11.80 0.55 11.30 0.55L11.30 0.55L11.30 0.55Q7.20 0.55 5.08-1.13L5.08-1.13L5.08-1.13Q2.95-2.80 2.95-5.95L2.95-5.95L3.30-16.60Z" transform="translate(93.5 41.375)"></path><path fill="#000000" d="M12.10 0.45L12.10 0.45Q10.20 0.45 8.28 0.25L8.28 0.25L8.28 0.25Q6.35 0.05 5.08-0.15L5.08-0.15L5.08-0.15Q3.80-0.35 3.45-0.40L3.45-0.40L2.95-1L2.95-29.20L2.95-29.20Q2.95-30.85 2.48-31.45L2.48-31.45L2.48-31.45Q2-32.05 0.75-32.05L0.75-32.05L-0.50-32L-0.70-32.30L-0.35-35.40L-0.35-35.40Q2.85-35.80 6.48-36.35L6.48-36.35L6.48-36.35Q10.10-36.90 11.20-37.10L11.20-37.10L11.65-36L11.65-36Q10.60-34.85 10.20-20.60L10.20-20.60L10.20-20.60Q14.50-23.70 15.35-23.70L15.35-23.70L15.35-23.70Q19.75-23.70 22.28-20.73L22.28-20.73L22.28-20.73Q24.80-17.75 24.80-12.55L24.80-12.55L24.80-12.55Q24.80-8.70 23.20-5.75L23.20-5.75L23.20-5.75Q21.60-2.80 18.73-1.18L18.73-1.18L18.73-1.18Q15.85 0.45 12.10 0.45L12.10 0.45ZM13.05-4.35L13.05-4.35Q15-4.35 16.03-5.93L16.03-5.93L16.03-5.93Q17.05-7.50 17.05-10.55L17.05-10.55L17.05-10.55Q17.05-14.25 15.98-16.28L15.98-16.28L15.98-16.28Q14.90-18.30 13-18.30L13-18.30L13-18.30Q12.20-18.30 11.43-17.98L11.43-17.98L11.43-17.98Q10.65-17.65 10.10-17.15L10.10-17.15L10-5L10-5Q10.35-4.80 11.25-4.58L11.25-4.58L11.25-4.58Q12.15-4.35 13.05-4.35L13.05-4.35Z" transform="translate(123.95 41.375)"></path></g></svg></g> <!----></g>  <!----></svg>